<svg width="128" height="128" viewBox="0 0 128 128" fill="none" xmlns="http://www.w3.org/2000/svg">
<path d="M76.397 55.676C73.66 55.676 71.622 57.02 71.622 60.255C71.622 62.692 72.965 64.384 76.25 64.384C79.034 64.384 80.926 62.743 80.926 60.154C80.926 57.22 79.233 55.676 76.397 55.676ZM70.926 78.516C70.278 79.311 69.632 80.156 69.632 81.153C69.632 83.142 72.168 83.74 75.653 83.74C78.538 83.74 82.469 83.538 82.469 80.855C82.469 79.26 80.577 79.162 78.188 79.012L70.926 78.516ZM85.651 55.826C86.546 56.971 87.493 58.563 87.493 60.852C87.493 66.374 83.164 69.608 76.896 69.608C75.302 69.608 73.859 69.41 72.964 69.161L71.322 71.798L76.197 72.095C84.805 72.644 89.879 72.893 89.879 79.508C89.879 85.231 84.855 88.463 76.197 88.463C67.191 88.463 63.759 86.174 63.759 82.245C63.759 80.005 64.755 78.814 66.496 77.169C64.853 76.475 64.307 75.232 64.307 73.888C64.307 72.793 64.854 71.798 65.75 70.852C66.646 69.908 67.641 68.961 68.834 67.867C66.396 66.673 64.556 64.086 64.556 60.403C64.556 54.682 68.337 50.753 75.949 50.753C78.089 50.753 79.384 50.95 80.527 51.251H90.23V55.479L85.651 55.826ZM98.983 46.786C96.146 46.786 94.504 45.143 94.504 42.306C94.504 39.473 96.146 37.929 98.983 37.929C101.869 37.929 103.51 39.472 103.51 42.306C103.511 45.143 101.869 46.786 98.983 46.786ZM92.563 76.686V72.757L95.102 72.409C95.798 72.309 95.897 72.16 95.897 71.412V56.785C95.897 56.239 95.749 55.889 95.25 55.741L92.563 54.795L93.11 50.767H103.411V71.413C103.411 72.211 103.459 72.309 104.207 72.41L106.745 72.758V76.687L92.563 76.686ZM126.42 74.756C124.279 75.799 121.146 76.746 118.308 76.746C112.388 76.746 110.15 74.36 110.15 68.735V55.7C110.15 55.403 110.15 55.203 109.751 55.203H106.269V50.775C110.649 50.276 112.389 48.087 112.936 42.664H117.664V49.731C117.664 50.078 117.664 50.229 118.062 50.229H125.077V55.204H117.664V67.094C117.664 70.029 118.361 71.173 121.047 71.173C122.442 71.173 123.883 70.826 125.077 70.378L126.42 74.756Z" fill="#31251C"/>
<path d="M52.7 61.7L29.951 38.952C29.3218 38.323 28.4686 37.9697 27.579 37.9697C26.6894 37.9697 25.8361 38.323 25.207 38.952L20.483 43.676L26.474 49.668C27.1785 49.4285 27.936 49.3911 28.6606 49.56C29.3853 49.729 30.0481 50.0976 30.574 50.624C31.103 51.1534 31.4724 51.8211 31.6398 52.5505C31.8073 53.28 31.7661 54.0419 31.521 54.749L37.296 60.524C38.1495 60.2266 39.0788 60.228 39.9314 60.5279C40.7841 60.8278 41.5096 61.4084 41.989 62.1747C42.4684 62.9409 42.6733 63.8473 42.5701 64.7453C42.4669 65.6432 42.0617 66.4795 41.421 67.117C40.7687 67.7706 39.91 68.1778 38.9912 68.2693C38.0724 68.3609 37.1502 68.131 36.3818 67.619C35.6134 67.107 35.0463 66.3444 34.777 65.4612C34.5077 64.5779 34.5529 63.6286 34.905 62.775L29.519 57.389L29.518 71.563C30.0865 71.8438 30.5799 72.256 30.9575 72.7654C31.335 73.2748 31.5858 73.8669 31.689 74.4925C31.7922 75.1181 31.7449 75.7593 31.551 76.363C31.3571 76.9667 31.0222 77.5155 30.574 77.964C30.1561 78.3818 29.6506 78.7016 29.0941 78.9004C28.5376 79.0991 27.9439 79.1719 27.3559 79.1134C26.7678 79.0549 26.2001 78.8667 25.6936 78.5622C25.1872 78.2577 24.7546 77.8446 24.4272 77.3527C24.0997 76.8608 23.8855 76.3023 23.8 75.7176C23.7145 75.1329 23.7599 74.5365 23.9329 73.9714C24.1058 73.4063 24.402 72.8867 24.8001 72.45C25.1982 72.0133 25.6883 71.6704 26.235 71.446V57.141C25.7475 56.9413 25.3043 56.6471 24.9311 56.2752C24.5579 55.9034 24.262 55.4613 24.0605 54.9745C23.8591 54.4877 23.756 53.9659 23.7573 53.439C23.7586 52.9122 23.8642 52.3908 24.068 51.905L18.162 45.997L2.56299 61.595C2.25122 61.9067 2.00391 62.2767 1.83517 62.6839C1.66644 63.0912 1.57959 63.5277 1.57959 63.9685C1.57959 64.4093 1.66644 64.8458 1.83517 65.2531C2.00391 65.6603 2.25122 66.0304 2.56299 66.342L25.312 89.09C25.9415 89.7191 26.795 90.0725 27.685 90.0725C28.5749 90.0725 29.4285 89.7191 30.058 89.09L52.7 66.446C53.0117 66.1344 53.259 65.7645 53.4277 65.3573C53.5965 64.9502 53.6833 64.5138 53.6833 64.073C53.6833 63.6323 53.5965 63.1958 53.4277 62.7887C53.259 62.3815 53.0117 62.0116 52.7 61.7Z" fill="#F34F29"/>
</svg>
