<svg width="40" height="40" viewBox="0 0 40 40" fill="none" xmlns="http://www.w3.org/2000/svg">
<g clip-path="url(#clip0_43_10)">
<path d="M0 20C0 31.0457 8.9543 40 20 40C31.0457 40 40 31.0457 40 20C40 8.9543 31.0457 0 20 0C8.9543 0 0 8.9543 0 20Z" fill="url(#paint0_linear_43_10)"/>
<path fill-rule="evenodd" clip-rule="evenodd" d="M19.9694 10.24C14.4649 10.24 10 14.7049 10 20.2094C10 24.6131 12.8746 28.344 16.789 29.6895C17.2783 29.7507 17.4618 29.4449 17.4618 29.2002C17.4618 28.9556 17.4618 28.344 17.4618 27.4877C14.7095 28.0994 14.0979 26.1421 14.0979 26.1421C13.6698 24.9801 12.997 24.6742 12.997 24.6742C12.0795 24.0626 13.0581 24.0626 13.0581 24.0626C14.0367 24.1237 14.5871 25.1024 14.5871 25.1024C15.5046 26.6315 16.9114 26.2032 17.4618 25.9586C17.5229 25.2859 17.8288 24.8577 18.0734 24.6131C15.8715 24.3685 13.5474 23.5121 13.5474 19.659C13.5474 18.558 13.9144 17.7017 14.5871 16.9679C14.526 16.7844 14.159 15.7446 14.7095 14.399C14.7095 14.399 15.5658 14.1544 17.4618 15.4387C18.2569 15.1941 19.1131 15.133 19.9694 15.133C20.8258 15.133 21.682 15.2552 22.4771 15.4387C24.3731 14.1544 25.2294 14.399 25.2294 14.399C25.7799 15.7446 25.4129 16.7844 25.3516 17.029C25.9632 17.7017 26.3914 18.6192 26.3914 19.7201C26.3914 23.5734 24.0672 24.3685 21.8655 24.6131C22.2324 24.9189 22.5382 25.5305 22.5382 26.448C22.5382 27.7935 22.5382 28.8332 22.5382 29.2002C22.5382 29.4449 22.7218 29.7507 23.211 29.6895C27.1865 28.344 30 24.6131 30 20.2094C29.9389 14.7049 25.474 10.24 19.9694 10.24Z" fill="white"/>
</g>
<defs>
<linearGradient id="paint0_linear_43_10" x1="20" y1="0" x2="20" y2="40" gradientUnits="userSpaceOnUse">
<stop stop-color="#307AD0"/>
<stop offset="1" stop-color="#330867" stop-opacity="0"/>
</linearGradient>
<clipPath id="clip0_43_10">
<rect width="40" height="40" fill="white"/>
</clipPath>
</defs>
</svg>
