<svg width="128" height="128" viewBox="0 0 128 128" fill="none" xmlns="http://www.w3.org/2000/svg">
<path fill-rule="evenodd" clip-rule="evenodd" d="M64.0001 1.51199C40.5071 1.51199 21.4551 20.559 21.4551 44.057C21.4551 62.854 33.6451 78.802 50.5501 84.427C52.6761 84.821 53.4571 83.504 53.4571 82.38C53.4571 81.366 53.4171 78.014 53.3991 74.46C41.5621 77.033 39.0651 69.44 39.0651 69.44C37.1301 64.522 34.3411 63.214 34.3411 63.214C30.4811 60.574 34.6311 60.628 34.6311 60.628C38.9041 60.928 41.1541 65.013 41.1541 65.013C44.9481 71.517 51.1071 69.636 53.5341 68.549C53.9171 65.799 55.0191 63.921 56.2361 62.859C46.7861 61.784 36.8521 58.135 36.8521 41.833C36.8521 37.188 38.5141 33.393 41.2361 30.413C40.7941 29.341 39.3381 25.013 41.6481 19.153C41.6481 19.153 45.2201 18.011 53.3481 23.516C56.7431 22.573 60.3831 22.1 63.9981 22.084C67.6141 22.101 71.2561 22.574 74.6561 23.516C82.7761 18.012 86.3441 19.154 86.3441 19.154C88.6601 25.014 87.2041 29.341 86.7621 30.414C89.4901 33.392 91.1401 37.188 91.1401 41.834C91.1401 58.174 81.1871 61.772 71.7131 62.824C73.2391 64.144 74.5991 66.734 74.5991 70.704C74.5991 76.396 74.5511 80.977 74.5511 82.378C74.5511 83.508 75.3171 84.836 77.4731 84.418C94.3691 78.786 106.543 62.844 106.543 44.053C106.545 20.56 87.4971 1.51199 64.0001 1.51199Z" fill="#181616"/>
<path d="M37.5702 62.596C37.4752 62.808 37.1422 62.871 36.8402 62.726C36.5302 62.586 36.3582 62.299 36.4582 62.086C36.5482 61.87 36.8822 61.809 37.1912 61.954C37.5012 62.094 37.6762 62.384 37.5702 62.596ZM39.2932 64.52C39.0902 64.707 38.6932 64.62 38.4232 64.322C38.1452 64.025 38.0932 63.628 38.2992 63.438C38.5072 63.25 38.8922 63.338 39.1692 63.635C39.4492 63.935 39.5042 64.328 39.2922 64.519L39.2932 64.52ZM40.9702 66.968C40.7102 67.15 40.2832 66.98 40.0202 66.601C39.7582 66.224 39.7582 65.771 40.0252 65.588C40.2892 65.406 40.7092 65.57 40.9752 65.945C41.2372 66.33 41.2372 66.784 40.9702 66.968ZM43.2682 69.336C43.0352 69.593 42.5382 69.524 42.1752 69.173C41.8032 68.83 41.7002 68.343 41.9332 68.086C42.1702 67.829 42.6692 67.901 43.0352 68.249C43.4052 68.591 43.5172 69.08 43.2682 69.336ZM46.4402 70.71C46.3362 71.044 45.8582 71.195 45.3762 71.054C44.8942 70.908 44.5802 70.518 44.6762 70.182C44.7762 69.846 45.2582 69.689 45.7432 69.84C46.2232 69.984 46.5392 70.37 46.4402 70.71ZM49.9202 70.965C49.9332 71.315 49.5242 71.607 49.0182 71.613C48.5102 71.625 48.0982 71.341 48.0922 70.995C48.0922 70.641 48.4922 70.353 49.0002 70.345C49.5062 70.335 49.9202 70.617 49.9202 70.965ZM53.1602 70.414C53.2202 70.756 52.8702 71.108 52.3672 71.201C51.8732 71.293 51.4172 71.081 51.3532 70.741C51.2932 70.391 51.6502 70.041 52.1432 69.949C52.6462 69.861 53.0962 70.066 53.1602 70.414Z" fill="#181616"/>
<path d="M24.8549 108.302H14.1549C14.0223 108.302 13.8951 108.355 13.8013 108.448C13.7076 108.542 13.6549 108.669 13.6549 108.802V114.034C13.6549 114.167 13.7076 114.294 13.8013 114.388C13.8951 114.481 14.0223 114.534 14.1549 114.534H18.3279V121.034C18.3279 121.034 17.3909 121.354 14.7979 121.354C11.7419 121.354 7.47088 120.238 7.47088 110.846C7.47088 101.453 11.9189 100.216 16.0949 100.216C19.7089 100.216 21.2649 100.852 22.2569 101.159C22.5669 101.253 22.8569 100.943 22.8569 100.667L24.0499 95.612C24.0518 95.5363 24.0354 95.4613 24.0019 95.3934C23.9685 95.3254 23.919 95.2666 23.8579 95.222C23.4549 94.934 21.0009 93.562 14.7999 93.562C7.65588 93.562 0.327881 96.6 0.327881 111.212C0.327881 125.822 8.71788 127.999 15.7879 127.999C21.6419 127.999 25.1929 125.497 25.1929 125.497C25.3389 125.417 25.3549 125.212 25.3549 125.117V108.801C25.3549 108.668 25.3022 108.541 25.2084 108.447C25.1147 108.354 24.9875 108.302 24.8549 108.302ZM79.5059 94.81H73.4799C73.4141 94.8103 73.3491 94.8235 73.2885 94.8489C73.2278 94.8744 73.1728 94.9115 73.1266 94.9582C73.0803 95.005 73.0437 95.0603 73.0189 95.1212C72.9941 95.1821 72.9815 95.2473 72.9819 95.313L72.9839 106.957H63.5919V95.313C63.5923 95.2474 63.5797 95.1823 63.555 95.1214C63.5302 95.0606 63.4937 95.0053 63.4476 94.9586C63.4014 94.9119 63.3465 94.8747 63.286 94.8492C63.2255 94.8237 63.1605 94.8104 63.0949 94.81H57.0699C57.0041 94.8103 56.9391 94.8235 56.8785 94.8489C56.8178 94.8744 56.7628 94.9115 56.7166 94.9582C56.6703 95.005 56.6337 95.0603 56.6089 95.1212C56.5841 95.1821 56.5715 95.2473 56.5719 95.313V126.843C56.5719 127.12 56.7959 127.346 57.0699 127.346H63.0949C63.1606 127.346 63.2257 127.332 63.2862 127.307C63.3468 127.281 63.4018 127.244 63.4479 127.197C63.4941 127.15 63.5306 127.095 63.5553 127.034C63.58 126.973 63.5924 126.908 63.5919 126.842V113.356H72.9839L72.9679 126.842C72.9679 127.12 73.1919 127.346 73.4679 127.346H79.5059C79.5716 127.346 79.6366 127.332 79.6972 127.307C79.7578 127.281 79.8127 127.244 79.8589 127.197C79.9051 127.15 79.9416 127.095 79.9663 127.034C79.991 126.973 80.0034 126.908 80.0029 126.842V95.312C80.0035 95.2463 79.9912 95.1812 79.9665 95.1203C79.9418 95.0594 79.9053 95.004 79.8591 94.9573C79.8129 94.9107 79.7579 94.8736 79.6972 94.8483C79.6366 94.823 79.5716 94.81 79.5059 94.81ZM32.3399 95.527C30.1959 95.527 28.4559 97.28 28.4559 99.45C28.4559 101.617 30.1959 103.375 32.3399 103.375C34.4859 103.375 36.2249 101.617 36.2249 99.45C36.2249 97.28 34.4849 95.527 32.3399 95.527ZM35.2959 105.135H29.2899C29.0139 105.135 28.7679 105.419 28.7679 105.695V126.547C28.7679 127.16 29.1499 127.342 29.6439 127.342H35.0539C35.6489 127.342 35.7939 127.05 35.7939 126.537V105.638C35.7941 105.572 35.7815 105.507 35.7566 105.447C35.7317 105.386 35.6951 105.33 35.6488 105.284C35.6026 105.237 35.5476 105.2 35.4871 105.175C35.4265 105.149 35.3615 105.135 35.2959 105.135ZM102.902 105.182H96.9219C96.8562 105.183 96.7913 105.196 96.7308 105.222C96.6704 105.247 96.6155 105.284 96.5695 105.331C96.5234 105.378 96.487 105.434 96.4624 105.494C96.4378 105.555 96.4254 105.62 96.4259 105.686V121.146C96.4259 121.146 94.9059 122.256 92.7509 122.256C90.5959 122.256 90.0239 121.279 90.0239 119.168V105.686C90.0244 105.62 90.012 105.555 89.9873 105.494C89.9626 105.433 89.9261 105.378 89.8799 105.331C89.8337 105.284 89.7788 105.247 89.7182 105.221C89.6576 105.196 89.5926 105.182 89.5269 105.182H83.4589C83.3261 105.183 83.1991 105.237 83.1058 105.331C83.0125 105.426 82.9603 105.553 82.9609 105.686V120.188C82.9609 126.458 86.4559 127.992 91.2629 127.992C95.2069 127.992 98.3869 125.812 98.3869 125.812C98.3869 125.812 98.5369 126.962 98.6069 127.097C98.6769 127.233 98.8539 127.37 99.0469 127.37L102.907 127.353C102.973 127.353 103.038 127.34 103.099 127.314C103.16 127.289 103.215 127.251 103.261 127.205C103.308 127.158 103.344 127.102 103.369 127.041C103.394 126.98 103.407 126.915 103.407 126.849L103.404 105.683C103.403 105.55 103.351 105.423 103.257 105.329C103.163 105.235 103.037 105.182 102.904 105.181L102.902 105.182ZM119.244 104.474C115.848 104.474 113.538 105.989 113.538 105.989V95.312C113.538 95.2464 113.526 95.1813 113.501 95.1204C113.476 95.0596 113.44 95.0043 113.394 94.9576C113.347 94.9109 113.293 94.8737 113.232 94.8482C113.171 94.8227 113.107 94.8094 113.041 94.809H107C106.934 94.809 106.869 94.822 106.808 94.8474C106.747 94.8727 106.692 94.9098 106.645 94.9565C106.599 95.0033 106.562 95.0587 106.537 95.1198C106.512 95.1808 106.499 95.2461 106.5 95.312V126.842C106.499 126.908 106.512 126.973 106.537 127.034C106.562 127.095 106.599 127.151 106.645 127.198C106.692 127.244 106.747 127.281 106.808 127.307C106.869 127.332 106.934 127.345 107 127.345H111.192C111.382 127.345 111.524 127.248 111.629 127.077C111.732 126.907 111.883 125.623 111.883 125.623C111.883 125.623 114.353 127.963 119.031 127.963C124.521 127.963 127.671 125.179 127.671 115.461C127.671 105.743 122.641 104.473 119.243 104.473L119.244 104.474ZM116.884 122.238C114.811 122.175 113.404 121.234 113.404 121.234V111.249C113.404 111.249 114.792 110.399 116.494 110.245C118.647 110.052 120.722 110.703 120.722 115.839C120.722 121.256 119.787 122.325 116.885 122.237L116.884 122.238ZM53.1949 122.12C52.9319 122.12 52.2579 122.227 51.5649 122.227C49.3449 122.227 48.5919 121.195 48.5919 119.859V110.993H53.1119C53.1779 110.993 53.2432 110.98 53.3042 110.955C53.3651 110.929 53.4204 110.892 53.4669 110.845C53.5133 110.798 53.5501 110.743 53.575 110.682C53.5999 110.62 53.6124 110.555 53.6119 110.489V105.633C53.6121 105.567 53.5994 105.502 53.5744 105.441C53.5494 105.38 53.5126 105.325 53.4661 105.278C53.4197 105.232 53.3645 105.195 53.3037 105.169C53.2429 105.144 53.1777 105.131 53.1119 105.131H48.5919L48.5849 99.161C48.5849 98.934 48.4689 98.821 48.2069 98.821H42.0469C41.8089 98.821 41.6799 98.927 41.6799 99.156V105.326C41.6799 105.326 38.5929 106.071 38.3849 106.131C38.281 106.161 38.1898 106.224 38.1249 106.311C38.06 106.398 38.0249 106.503 38.0249 106.611V110.488C38.0245 110.554 38.037 110.619 38.0618 110.68C38.0866 110.74 38.1231 110.796 38.1692 110.842C38.2154 110.889 38.2703 110.926 38.3308 110.952C38.3913 110.977 38.4562 110.991 38.5219 110.991H41.6799V120.319C41.6799 127.249 46.5399 127.929 49.8199 127.929C51.3169 127.929 53.1099 127.449 53.4059 127.339C53.5859 127.272 53.6889 127.087 53.6889 126.886L53.6929 122.621C53.6908 122.489 53.6376 122.363 53.5443 122.269C53.451 122.175 53.325 122.122 53.1929 122.119L53.1949 122.12Z" fill="#100E0F"/>
</svg>
