<svg width="128" height="128" viewBox="0 0 128 128" fill="none" xmlns="http://www.w3.org/2000/svg">
<path d="M68.7 37.9H69.8001L72.9001 34.8L73.1 33.5C70.7 31.3 67.4 30 63.8 30C57.4 30 51.9 34.4 50.3 40.3C50.6 40.1 51.4001 40.2 51.4001 40.2L57.6 39.2C57.6 39.2 57.9 38.7 58.1 38.7C60.9 35.7 65.5 35.4 68.7 37.9Z" fill="#EA4535"/>
<path d="M77.4 40.3C76.6 37.7 75.2 35.3 73.1 33.5L68.7 37.9C70.6 39.4 71.6 41.6 71.6 44V44.8C73.7 44.8 75.5 46.5 75.5 48.7C75.5 50.8 73.8 52.5 71.6 52.5H63.8L63 53.3V58L63.8 58.8H71.6C77.2 58.8 81.7 54.3 81.7 48.7C81.7 45.3 80 42.2 77.3 40.4L77.4 40.3Z" fill="#1D56B0"/>
<path d="M56.1 58.7H63.9V52.5H56.1C55.5 52.5 55 52.4 54.5 52.2L53.4 52.5L50.3 55.6L50 56.6C51.7 58 53.9 58.7 56.1 58.7Z" fill="#00D234"/>
<path d="M56.1 38.5C50.5 38.5 46 43 46 48.6C46 51.8 47.5 54.8 50 56.7L54.5 52.2C53.1 51.5 52.2 50.2 52.2 48.6C52.2 46.5 53.9 44.7 56.1 44.7C57.6 44.8 59 45.7 59.6 47L64.1 42.5C62.3 40.1 59.3 38.5 56.1 38.5Z" fill="#F9BC15"/>
<path d="M15.9 78.3C13.8 78.3 12 77.5 10.4 76C8.79997 74.5 8.09998 72.8 8.09998 70.6C8.09998 68.4 8.89997 66.7 10.4 65.2C11.9 63.7 13.8 62.9 15.9 62.9C17.8 63 19.7 63.7 21.1 65.1L19.6 66.6C18.6 65.6 17.3 65.1 15.8 65.1C14.3 65.1 13 65.6 11.9 66.7C10.9 67.7 10.3 69.2 10.4 70.6C10.4 72.1 10.9 73.5 12 74.5C13 75.7 14.4 76.2 15.8 76.2C17.4 76.2 18.6 75.7 19.7 74.7C20.3 74.1 20.7 73.2 20.8 72.1H15.9V70H22.9C23 70.4 23 70.8 23 71.3C23 73.4 22.4 75 21.2 76.2C19.8 77.6 18.1 78.4 15.9 78.4V78.3ZM32.3 76.9C31.3 77.8 30.2 78.3 28.8 78.3C27.4 78.3 26.2 77.8 25.3 76.9C24.4 76 23.9 74.8 23.9 73.4C23.9 72 24.4 70.8 25.3 69.9C26.2 69 27.4 68.5 28.8 68.5C30.2 68.5 31.4 69 32.3 69.9C33.2 70.8 33.7 72 33.7 73.4C33.7 74.8 33.2 76 32.3 76.9ZM26.8 75.5C27.3 76.1 28 76.4 28.7 76.4C29.5 76.4 30.1 76.1 30.7 75.5C31.3 74.9 31.5 74.2 31.5 73.4C31.5 72.5 31.2 71.8 30.7 71.2C30.2 70.6 29.5 70.4 28.7 70.4C28 70.4 27.2 70.7 26.7 71.2C26.2 71.8 25.9 72.5 25.9 73.4C25.9 74.3 26.2 75 26.7 75.5H26.8ZM43.1 76.9C42.1 77.8 41 78.3 39.6 78.3C38.2 78.3 37 77.8 36.1 76.9C35.2 76 34.7 74.8 34.7 73.4C34.7 72 35.2 70.8 36.1 69.9C37 69 38.2 68.5 39.6 68.5C41 68.5 42.2 69 43.1 69.9C44 70.8 44.5 72 44.5 73.4C44.5 74.8 44 76 43.1 76.9ZM37.6 75.5C38.1 76.1 38.8 76.4 39.5 76.4C40.3 76.4 40.9 76.1 41.5 75.5C42.1 74.9 42.3 74.2 42.3 73.4C42.3 72.5 42 71.8 41.5 71.2C41 70.6 40.3 70.4 39.5 70.4C38.8 70.4 38 70.7 37.5 71.2C37 71.8 36.7 72.5 36.7 73.4C36.7 74.3 37 75 37.5 75.5H37.6ZM50.2 82.7C49.1 82.7 48.2 82.4 47.4 81.8C46.6 81.2 46.1 80.5 45.8 79.8L47.7 79C47.9 79.5 48.2 79.9 48.6 80.2C49 80.5 49.5 80.7 50.2 80.7C51 80.7 51.7 80.4 52.1 80C52.5 79.6 52.8 78.8 52.8 77.8V77.1H52.7C52.1 77.8 51.2 78.2 50.1 78.2C48.8 78.2 47.7 77.7 46.8 76.8C45.8 76 45.3 74.7 45.4 73.4C45.3 72.1 45.8 70.8 46.8 69.9C47.7 68.9 48.8 68.5 50.1 68.5C50.7 68.5 51.2 68.6 51.6 68.8C52 69 52.4 69.3 52.7 69.6H52.8V68.8H54.9V77.7C54.9 79.4 54.5 80.7 53.6 81.6C52.7 82.4 51.6 82.9 50.2 82.9V82.7ZM50.3 76.3C51 76.4 51.7 76.1 52.1 75.5C52.6 74.9 52.9 74.2 52.9 73.4C52.9 72.5 52.6 71.8 52.1 71.2C51.7 70.7 51 70.4 50.3 70.4C49.5 70.4 48.9 70.7 48.4 71.3C47.9 71.9 47.6 72.6 47.6 73.5C47.6 74.3 47.9 75.1 48.4 75.6C48.9 76.1 49.6 76.5 50.3 76.5V76.3ZM58.5 63.4V77.9H56.3V63.4H58.5ZM64.4 78.2C63 78.2 61.8 77.7 60.9 76.8C60 75.9 59.5 74.7 59.5 73.3C59.5 71.9 60 70.7 60.9 69.7C61.7 68.9 62.9 68.4 64.2 68.4C64.8 68.4 65.4 68.5 65.9 68.7C66.3 69 66.7 69.2 67.1 69.6C67.4 69.9 67.7 70.2 67.9 70.6C68.1 70.9 68.3 71.2 68.4 71.6L68.6 72.2L62 74.9C62.5 75.9 63.3 76.4 64.4 76.4C65.4 76.4 66.2 75.9 66.8 75L68.5 76.1C68.1 76.7 67.6 77.2 66.9 77.6C66.2 78 65.4 78.3 64.4 78.3V78.2ZM61.7 73.1L66.1 71.3C66 71 65.7 70.7 65.4 70.5C65 70.4 64.6 70.3 64.2 70.3C63.6 70.3 63 70.6 62.4 71.1C61.8 71.6 61.6 72.3 61.6 73.2L61.7 73.1ZM80 78.2C78 78.2 76.4 77.5 75 76.2C73.6 74.9 73 73.2 73 71.2C73 69.2 73.7 67.5 75 66.2C76.3 64.9 78 64.2 80 64.2C82 64.2 83.7 64.9 84.9 66.4L83.7 67.6C82.8 66.5 81.5 65.9 80 65.9C78.5 65.9 77.3 66.4 76.3 67.4C75.3 68.4 74.8 69.7 74.8 71.3C74.8 72.9 75.3 74.2 76.3 75.2C77.3 76.2 78.5 76.7 80 76.7C81.6 76.7 83 76.1 84.1 74.8L85.3 76C84.7 76.7 83.9 77.3 83 77.7C82 78.1 81 78.3 80 78.3V78.2ZM88.6 77.9H86.9V64.6H88.6V77.9ZM91.4 69.8C92.3 68.9 93.4 68.4 94.8 68.4C96.2 68.4 97.3 68.9 98.2 69.8C99.1 70.7 99.5 71.9 99.5 73.3C99.5 74.7 99.1 75.9 98.2 76.8C97.3 77.7 96.2 78.2 94.8 78.2C93.4 78.2 92.3 77.7 91.4 76.8C90.5 75.9 90.1 74.7 90.1 73.3C90.1 71.9 90.5 70.7 91.4 69.8ZM92.7 75.7C93.3 76.3 94 76.6 94.8 76.6C95.6 76.6 96.3 76.3 96.9 75.7C97.5 75.1 97.8 74.3 97.8 73.3C97.8 72.3 97.5 71.5 96.9 70.9C96.3 70.3 95.6 70 94.8 70C94 70 93.3 70.3 92.7 70.9C92.1 71.5 91.8 72.3 91.8 73.3C91.8 74.3 92.1 75.1 92.7 75.7ZM109 77.9H107.4V76.6H107.3C107 77 106.6 77.4 106.1 77.7C105.6 78 105 78.2 104.4 78.2C103.3 78.2 102.4 77.9 101.8 77.2C101.2 76.5 100.9 75.6 100.9 74.4V68.8H102.6V74.1C102.6 75.8 103.4 76.7 104.9 76.7C105.5 76.7 106.2 76.4 106.6 75.9C107 75.3 107.2 74.6 107.2 73.9V68.9H108.9V78.1L109 77.9ZM114.8 78.2C113.6 78.2 112.6 77.7 111.7 76.8C110.8 75.9 110.4 74.7 110.4 73.3C110.4 71.9 110.8 70.8 111.7 69.8C112.6 68.8 113.6 68.4 114.8 68.4C115.5 68.4 116.1 68.6 116.7 68.8C117.3 69 117.7 69.5 117.9 69.9H118L117.9 68.6V64.4H119.6V77.8H118V76.5H117.9C117.6 76.9 117.2 77.3 116.7 77.6C116.1 77.9 115.5 78 114.8 78V78.2ZM115.1 76.6C115.8 76.7 116.6 76.4 117.1 75.8C117.7 75.2 117.9 74.4 117.9 73.4C117.9 72.4 117.6 71.6 117.1 71C116.6 70.5 115.8 70.1 115.1 70.1C114.3 70.1 113.6 70.4 113 71C112.4 71.6 112.1 72.4 112.1 73.4C112.1 74.4 112.4 75.2 113 75.8C113.5 76.4 114.3 76.8 115.1 76.8V76.6Z" fill="#3B424A"/>
</svg>
